# xmcd
#
# Track frame offsets:
#	150
#	9690
#	22787
#	33670
#	45290
#	55087
#	66302
#	76875
#	86022
#	99667
#	110960
#	121842
#	132507
#	146455
#
# Disc length: 2087
#
# Revision: 1
# Processed by: cddbd v1.5.1PL0 Copyright (c) Steve Scherf et al.
# Submitted via: dBpowerAMP V4.0
# Normalized: r0:TDELIM( - )
#
DISCID=b808250e
DTITLE=Various Artist - Studio B Home Of A Thousand Hits Vol 1
DYEAR=1900
DGENRE=Country
TTITLE0=Jim Reeves - Billy Bayou
TTITLE1=The Browns - The Three Bells
TTITLE2=Hank Locklin - Please Help Me, I'm Falling
TTITLE3=Don Gibson - Sea Of Heartbreak
TTITLE4=Elvis Presley - His Latest Flame
TTITLE5=Chet Atkins - Windy and Warm
TTITLE6=Connie Smith - Once A Day
TTITLE7=Roger Miller - You Don't Want My Love
TTITLE8=John Hartford - Gentle On My Mind
TTITLE9=Willie Nelson - The Party's Over
TTITLE10=Porter Wagoner - Green, Green Grass of Home
TTITLE11=Waylon Jennings - Only Daddy That'll Walk the Line
TTITLE12=Dolly Parton - Coat of Many Colors
TTITLE13=Charley Pride - Just Between You and Me
EXTD=
EXTT0=
EXTT1=
EXTT2=
EXTT3=
EXTT4=
EXTT5=
EXTT6=
EXTT7=
EXTT8=
EXTT9=
EXTT10=
EXTT11=
EXTT12=
EXTT13=
PLAYORDER=
